{
  "accessors": [
    {
      "bufferView": 2,
      "componentType": 5126,
      "count": 25212,
      "max": [
        1.8593800067901611,
        4.860948085784912,
        9.465047836303711
      ],
      "min": [
        -4.942073345184326,
        -3.6037278175354004,
        -0.8871126174926758
      ],
      "type": "VEC3"
    },
    {
      "bufferView": 2,
      "byteOffset": 302544,
      "componentType": 5126,
      "count": 25212,
      "max": [
        0.9999970197677612,
        0.9999597668647766,
        1.0
      ],
      "min": [
        -0.9999964833259583,
        -0.999903678894043,
        -1.0
      ],
      "type": "VEC3"
    },
    {
      "bufferView": 1,
      "componentType": 5126,
      "count": 25212,
      "max": [
        0.9879083633422852,
        0.9837523102760315
      ],
      "min": [
        0.012055814266204834,
        0.022440703585743904
      ],
      "type": "VEC2"
    },
    {
      "bufferView": 1,
      "byteOffset": 201696,
      "componentType": 5126,
      "count": 25212,
      "max": [
        0.9592648148536682,
        0.993874728679657
      ],
      "min": [
        0.0,
        0.0
      ],
      "type": "VEC2"
    },
    {
      "bufferView": 1,
      "byteOffset": 403392,
      "componentType": 5126,
      "count": 25212,
      "max": [
        0.9879083633422852,
        0.9837523102760315
      ],
      "min": [
        0.012055814266204834,
        0.022440703585743904
      ],
      "type": "VEC2"
    },
    {
      "bufferView": 0,
      "componentType": 5125,
      "count": 122700,
      "type": "SCALAR"
    },
    {
      "bufferView": 2,
      "byteOffset": 605088,
      "componentType": 5126,
      "count": 1762,
      "max": [
        1.1288676261901855,
        1.2922167778015137,
        1.2161304950714111
      ],
      "min": [
        0.380524218082428,
        -1.392314076423645,
        -0.2198963314294815
      ],
      "type": "VEC3"
    },
    {
      "bufferView": 2,
      "byteOffset": 626232,
      "componentType": 5126,
      "count": 1762,
      "max": [
        0.999922513961792,
        0.994990885257721,
        0.5945374965667725
      ],
      "min": [
        -0.9111379384994507,
        -0.9975384473800659,
        -0.9986868500709534
      ],
      "type": "VEC3"
    },
    {
      "bufferView": 1,
      "byteOffset": 605088,
      "componentType": 5126,
      "count": 1762,
      "max": [
        0.7856733202934265,
        0.8324616551399231
      ],
      "min": [
        0.029402460902929306,
        0.02947905659675598
      ],
      "type": "VEC2"
    },
    {
      "bufferView": 1,
      "byteOffset": 619184,
      "componentType": 5126,
      "count": 1762,
      "max": [
        0.9680675268173218,
        0.9624232053756714
      ],
      "min": [
        0.6954165697097778,
        0.11252816021442413
      ],
      "type": "VEC2"
    },
    {
      "bufferView": 0,
      "byteOffset": 490800,
      "componentType": 5125,
      "count": 7368,
      "type": "SCALAR"
    },
    {
      "bufferView": 2,
      "byteOffset": 647376,
      "componentType": 5126,
      "count": 1624,
      "max": [
        1.4750406742095947,
        2.016409158706665,
        3.310486078262329
      ],
      "min": [
        0.11361788958311081,
        -2.043170928955078,
        2.1169626712799072
      ],
      "type": "VEC3"
    },
    {
      "bufferView": 2,
      "byteOffset": 666864,
      "componentType": 5126,
      "count": 1624,
      "max": [
        0.9977230429649353,
        0.9963008761405945,
        0.6658383011817932
      ],
      "min": [
        -0.6166603565216064,
        -0.9876130223274231,
        -0.9857921004295349
      ],
      "type": "VEC3"
    },
    {
      "bufferView": 1,
      "byteOffset": 633280,
      "componentType": 5126,
      "count": 1624,
      "max": [
        0.5689836144447327,
        0.9385342001914978
      ],
      "min": [
        0.4724324941635132,
        0.6874481439590454
      ],
      "type": "VEC2"
    },
    {
      "bufferView": 1,
      "byteOffset": 646272,
      "componentType": 5126,
      "count": 1624,
      "max": [
        0.8364861011505127,
        0.8687217235565186
      ],
      "min": [
        0.6418390870094299,
        0.2616606652736664
      ],
      "type": "VEC2"
    },
    {
      "bufferView": 0,
      "byteOffset": 520272,
      "componentType": 5125,
      "count": 5742,
      "type": "SCALAR"
    }
  ],
  "asset": {
    "extras": {
      "author": "JJTale (https://sketchfab.com/JJTale)",
      "license": "CC-BY-4.0 (http://creativecommons.org/licenses/by/4.0/)",
      "source": "https://sketchfab.com/3d-models/darth-vader-helmet-7c49aaf5121643189a4ac40fdfd0a35b",
      "title": "Darth Vader Helmet"
    },
    "generator": "Sketchfab-12.56.0",
    "version": "2.0"
  },
  "bufferViews": [
    {
      "buffer": 0,
      "byteLength": 543240,
      "name": "floatBufferViews",
      "target": 34963
    },
    {
      "buffer": 0,
      "byteLength": 659264,
      "byteOffset": 543240,
      "byteStride": 8,
      "name": "floatBufferViews",
      "target": 34962
    },
    {
      "buffer": 0,
      "byteLength": 686352,
      "byteOffset": 1202504,
      "byteStride": 12,
      "name": "floatBufferViews",
      "target": 34962
    }
  ],
  "buffers": [
    {
      "byteLength": 1888856,
      "uri": "scene.bin"
    }
  ],
  "images": [
    {
      "uri": "textures/MetalGraphitePitted001_3K_baseColor.png"
    },
    {
      "uri": "textures/MetalGraphitePitted001_3K_metallicRoughness.png"
    },
    {
      "uri": "textures/MetalFineSilver001_3K_metallicRoughness.png"
    }
  ],
  "materials": [
    {
      "doubleSided": true,
      "name": "MetalGraphitePitted001_3K",
      "pbrMetallicRoughness": {
        "baseColorTexture": {
          "index": 0
        },
        "metallicRoughnessTexture": {
          "index": 1
        },
        "roughnessFactor": 0.21453045762443906
      }
    },
    {
      "doubleSided": true,
      "name": "MetalFineSilver001_3K",
      "pbrMetallicRoughness": {
        "baseColorTexture": {
          "index": 0
        },
        "metallicRoughnessTexture": {
          "index": 2
        }
      }
    },
    {
      "doubleSided": true,
      "name": "MetalGraphitePitted001_3K.001",
      "pbrMetallicRoughness": {
        "baseColorTexture": {
          "index": 0
        },
        "metallicFactor": 0.8286690218779262,
        "metallicRoughnessTexture": {
          "index": 2
        },
        "roughnessFactor": 0.2570945165330966
      }
    }
  ],
  "meshes": [
    {
      "name": "Plane.014_MetalGraphitePitted001_3K_0",
      "primitives": [
        {
          "attributes": {
            "NORMAL": 1,
            "POSITION": 0,
            "TEXCOORD_0": 2,
            "TEXCOORD_1": 3,
            "TEXCOORD_2": 4
          },
          "indices": 5,
          "material": 0,
          "mode": 4
        }
      ]
    },
    {
      "name": "Plane.014_MetalFineSilver001_3K_0",
      "primitives": [
        {
          "attributes": {
            "NORMAL": 7,
            "POSITION": 6,
            "TEXCOORD_0": 8,
            "TEXCOORD_1": 9
          },
          "indices": 10,
          "material": 1,
          "mode": 4
        }
      ]
    },
    {
      "name": "Plane.014_MetalGraphitePitted001_3K.001_0",
      "primitives": [
        {
          "attributes": {
            "NORMAL": 12,
            "POSITION": 11,
            "TEXCOORD_0": 13,
            "TEXCOORD_1": 14
          },
          "indices": 15,
          "material": 2,
          "mode": 4
        }
      ]
    }
  ],
  "nodes": [
    {
      "children": [
        1
      ],
      "matrix": [
        1.0,
        0.0,
        0.0,
        0.0,
        0.0,
        2.220446049250313e-16,
        -1.0,
        0.0,
        0.0,
        1.0,
        2.220446049250313e-16,
        0.0,
        0.0,
        0.0,
        0.0,
        1.0
      ],
      "name": "Sketchfab_model"
    },
    {
      "children": [
        2
      ],
      "matrix": [
        0.009999999776482582,
        0.0,
        0.0,
        0.0,
        0.0,
        0.0,
        0.009999999776482582,
        0.0,
        0.0,
        -0.009999999776482582,
        0.0,
        0.0,
        0.0,
        0.0,
        0.0,
        1.0
      ],
      "name": "413039aecde6424d923df528b601edcc.fbx"
    },
    {
      "children": [
        3
      ],
      "name": "RootNode"
    },
    {
      "children": [
        4,
        5,
        6
      ],
      "matrix": [
        0.7980928081719593,
        3.1461989735050513,
        4.609962022009348,
        0.0,
        4.003975287568371,
        -0.33045807057792853,
        -0.46765180024805436,
        0.0,
        0.00843298135903008,
        3.0496269515857333,
        -2.08276411835633,
        0.0,
        -711.6524658203125,
        348.365478515625,
        148.881591796875,
        1.0
      ],
      "name": "Plane.014"
    },
    {
      "mesh": 0,
      "name": "Plane.014_MetalGraphitePitted001_3K_0"
    },
    {
      "mesh": 1,
      "name": "Plane.014_MetalFineSilver001_3K_0"
    },
    {
      "mesh": 2,
      "name": "Plane.014_MetalGraphitePitted001_3K.001_0"
    }
  ],
  "samplers": [
    {
      "magFilter": 9729,
      "minFilter": 9987,
      "wrapS": 10497,
      "wrapT": 10497
    }
  ],
  "scene": 0,
  "scenes": [
    {
      "name": "Sketchfab_Scene",
      "nodes": [
        0
      ]
    }
  ],
  "textures": [
    {
      "sampler": 0,
      "source": 0
    },
    {
      "sampler": 0,
      "source": 1
    },
    {
      "sampler": 0,
      "source": 2
    }
  ]
}
